<?xml version="1.0" encoding="UTF-8" standalone="no"?>
<!-- Created with Inkscape (http://www.inkscape.org/) -->

<svg
   width="66.448051mm"
   height="85.546616mm"
   viewBox="0 0 66.448051 85.546616"
   version="1.1"
   id="svg5"
   inkscape:version="1.2 (dc2aedaf03, 2022-05-15)"
   sodipodi:docname="birdy type of trouble art.svg"
   xmlns:inkscape="http://www.inkscape.org/namespaces/inkscape"
   xmlns:sodipodi="http://sodipodi.sourceforge.net/DTD/sodipodi-0.dtd"
   xmlns="http://www.w3.org/2000/svg"
   xmlns:svg="http://www.w3.org/2000/svg">
  <sodipodi:namedview
     id="namedview7"
     pagecolor="#ffffff"
     bordercolor="#999999"
     borderopacity="1"
     inkscape:showpageshadow="0"
     inkscape:pageopacity="0"
     inkscape:pagecheckerboard="0"
     inkscape:deskcolor="#d1d1d1"
     inkscape:document-units="mm"
     showgrid="false"
     inkscape:zoom="1.5091049"
     inkscape:cx="453.91144"
     inkscape:cy="406.20104"
     inkscape:window-width="1920"
     inkscape:window-height="1027"
     inkscape:window-x="-8"
     inkscape:window-y="-8"
     inkscape:window-maximized="1"
     inkscape:current-layer="layer1" />
  <defs
     id="defs2" />
  <g
     inkscape:label="Camada 1"
     inkscape:groupmode="layer"
     id="layer1"
     transform="translate(-29.27922,-59.259736)">
    <rect
       style="fill:none;stroke:none;stroke-width:1.5;stroke-linecap:round;stroke-linejoin:round;stroke-dasharray:none"
       id="rect16546"
       width="66.448051"
       height="61.363636"
       x="29.279221"
       y="59.259739"
       inkscape:export-filename="bee_1.png"
       inkscape:export-xdpi="96"
       inkscape:export-ydpi="96" />
    <path
       style="fill:#000000;stroke:#000000;stroke-width:1.5;stroke-linecap:round;stroke-linejoin:round;stroke-dasharray:none;stroke-opacity:1"
       d="m 37.535483,114.80758 -5.25974,5.08441 6.31169,2.27922 z"
       id="path4712" />
    <g
       id="g16488"
       inkscape:transform-center-x="-10.101227"
       inkscape:transform-center-y="-14.286651"
       transform="rotate(5.9884096,68.493263,96.387738)">
      <path
         style="fill:#87aade;stroke:#000000;stroke-width:1.5;stroke-linecap:butt;stroke-linejoin:miter;stroke-dasharray:none;stroke-opacity:1"
         d="m 76.863423,97.442987 c 0,0 29.257687,-29.257691 2.727412,-32.233049 C 53.060557,62.234579 65.581857,95.335441 65.581857,95.335441 Z"
         id="path16478" />
      <path
         style="fill:none;stroke:#000000;stroke-width:1.5;stroke-linecap:round;stroke-linejoin:round;stroke-dasharray:none;stroke-opacity:1"
         d="m 77.359319,76.367531 c -3.12935,6.116015 -5.918441,12.232029 -8.058264,18.348044"
         id="path16484"
         sodipodi:nodetypes="cc" />
    </g>
    <g
       id="g16492"
       inkscape:transform-center-x="6.252265"
       inkscape:transform-center-y="-12.738689"
       transform="rotate(-4.6323364,57.527989,98.013815)">
      <path
         style="fill:#87aade;stroke:#000000;stroke-width:1.5;stroke-linecap:butt;stroke-linejoin:miter;stroke-dasharray:none;stroke-opacity:1"
         d="m 64.714045,95.583387 c 0,0 1.115759,-32.480996 -17.976125,-23.926839 -19.091883,8.554156 5.206879,27.77001 5.206879,27.77001 z"
         id="path16480" />
      <path
         style="fill:none;stroke:#000000;stroke-width:1.5;stroke-linecap:round;stroke-linejoin:round;stroke-dasharray:none;stroke-opacity:1"
         d="M 56.407835,95.335441 C 54.589561,90.24996 52.771287,85.629421 50.953013,81.202489"
         id="path16482"
         sodipodi:nodetypes="cc" />
    </g>
    <ellipse
       style="fill:#ffcc00;stroke:#000000;stroke-width:1.5;stroke-linecap:round;stroke-linejoin:round;stroke-dasharray:none"
       id="path247"
       cx="48.16647"
       cy="123.39165"
       rx="26.2987"
       ry="24.282467"
       transform="rotate(-6.7969993)" />
    <path
       style="fill:none;stroke:#000000;stroke-width:1.5;stroke-linecap:round;stroke-linejoin:round;stroke-dasharray:none;stroke-opacity:1"
       d="m 80.840673,104.81407 0.7013,7.36364"
       id="path407" />
    <path
       style="fill:none;stroke:#000000;stroke-width:1.5;stroke-linecap:round;stroke-linejoin:round;stroke-dasharray:none;stroke-opacity:1"
       d="m 73.652363,105.34004 0.7013,7.36364"
       id="path409" />
    <path
       id="path3983"
       style="fill:#784421;stroke:#000000;stroke-width:1.5;stroke-linecap:round;stroke-linejoin:round;stroke-dasharray:none"
       d="m 48.062388,137.41777 c -0.04373,-0.12193 -0.09048,-0.24394 -0.133326,-0.36587 -0.155297,-0.44197 -0.304611,-0.88353 -0.448551,-1.3255 -0.143938,-0.44196 -0.282556,-0.88406 -0.415479,-1.32602 -0.132922,-0.44196 -0.260157,-0.88405 -0.382404,-1.32601 -0.122249,-0.44197 -0.239484,-0.88405 -0.3514,-1.32602 -0.111918,-0.44197 -0.218468,-0.88354 -0.320395,-1.32551 -0.101926,-0.44196 -0.199175,-0.88404 -0.291454,-1.32601 -0.09228,-0.44197 -0.179544,-0.88405 -0.262516,-1.32601 -0.08297,-0.44198 -0.161637,-0.88406 -0.235646,-1.32602 -0.07401,-0.44197 -0.143385,-0.88406 -0.208772,-1.32603 -0.06539,-0.44196 -0.126861,-0.88352 -0.183968,-1.32549 -0.05711,-0.44198 -0.109995,-0.88405 -0.159164,-1.32602 -0.04917,-0.44197 -0.09434,-0.88405 -0.135909,-1.32602 -0.04157,-0.44197 -0.07937,-0.88405 -0.113687,-1.32601 -0.03432,-0.44197 -0.06509,-0.88405 -0.0925,-1.32602 -0.02741,-0.44197 -0.05151,-0.88354 -0.07235,-1.32551 -0.02084,-0.44197 -0.03861,-0.88404 -0.05323,-1.32601 -0.01461,-0.44197 -0.0259,-0.88404 -0.03462,-1.32602 -0.0087,-0.44197 -0.0149,-0.88405 -0.01809,-1.32602 -0.0032,-0.44197 -0.0036,-0.88352 -0.0015,-1.3255 0.002,-0.44196 0.0066,-0.88404 0.01344,-1.32601 0.0069,-0.44197 0.01599,-0.88406 0.02739,-1.32602 0.01139,-0.44197 0.02525,-0.88405 0.04082,-1.32602 0.01557,-0.44196 0.03279,-0.88405 0.05219,-1.32602 0.0194,-0.44196 0.04067,-0.88353 0.06356,-1.3255 0.04579,-0.88393 0.09836,-1.7681 0.156064,-2.65203 0.0577,-0.88393 0.120709,-1.76759 0.187585,-2.651514 0.01918,-0.253541 0.04067,-0.507148 0.06046,-0.760681 a 24.282467,26.2987 83.203001 0 0 -5.503019,6.651795 c -0.0015,0.0379 -0.0037,0.0758 -0.0052,0.11369 -0.02829,0.74147 -0.05161,1.48319 -0.06873,2.22467 -0.0086,0.37073 -0.01578,0.74134 -0.02119,1.11207 -0.0054,0.37074 -0.0088,0.74135 -0.01085,1.11208 -0.002,0.37074 -0.0026,0.74135 -10e-4,1.11207 0.0016,0.37074 0.0054,0.74187 0.01085,1.1126 0.0055,0.37073 0.01265,0.74134 0.02222,1.11207 0.0096,0.37074 0.02122,0.74135 0.03514,1.11208 0.01392,0.37074 0.03008,0.74135 0.04858,1.11208 0.0185,0.37073 0.03973,0.74186 0.06305,1.1126 0.02331,0.37073 0.04863,0.74134 0.077,1.11207 0.02837,0.37074 0.05935,0.74134 0.09302,1.11208 0.03367,0.37073 0.07035,0.74134 0.109555,1.11208 0.0392,0.37073 0.08112,0.74134 0.12609,1.11207 0.04497,0.37073 0.09268,0.74186 0.143661,1.1126 0.05098,0.37073 0.105035,0.74133 0.162263,1.11207 0.05723,0.37073 0.117669,0.74134 0.181384,1.11208 0.06372,0.37073 0.131099,0.74134 0.201538,1.11207 0.07044,0.37074 0.14429,0.74187 0.221693,1.1126 0.0774,0.37074 0.158275,0.74134 0.242878,1.11207 0.0846,0.37074 0.17254,0.74134 0.264584,1.11208 0.09204,0.37074 0.188117,0.74134 0.287837,1.11207 0.09972,0.37075 0.203456,0.74187 0.311093,1.11261 0.09283,0.31974 0.189983,0.63935 0.288871,0.95911 a 24.282467,26.2987 83.203001 0 0 6.03219,4.94595 z" />
    <path
       id="path3977"
       style="fill:#784421;stroke:#000000;stroke-width:1.5;stroke-linecap:round;stroke-linejoin:round;stroke-dasharray:none"
       d="m 57.562066,93.02823 c -0.03399,0.203201 -0.06973,0.406701 -0.102834,0.609776 -0.0916,0.561759 -0.179813,1.123357 -0.264588,1.684141 -0.08478,0.560785 -0.166157,1.120732 -0.243912,1.680519 -0.07775,0.559776 -0.151688,1.119189 -0.222205,1.677931 -0.07052,0.558743 -0.13742,1.117146 -0.20051,1.674833 -0.06308,0.55768 -0.122312,1.11462 -0.177768,1.67121 -0.05544,0.5566 -0.107411,1.11265 -0.155024,1.66813 -0.04761,0.55546 -0.09117,1.11068 -0.130741,1.66501 -0.03957,0.55432 -0.07513,1.10773 -0.106451,1.66087 -0.03133,0.55316 -0.05825,1.10584 -0.08114,1.65779 -0.02288,0.55194 -0.04158,1.10345 -0.05581,1.65416 -0.01423,0.5507 -0.02407,1.10058 -0.02945,1.65003 -0.0054,0.54944 -0.0063,1.09826 -0.0026,1.64641 0.0037,0.54815 0.01186,1.09545 0.0248,1.64228 0.01294,0.54683 0.03031,1.09318 0.05271,1.63865 0.0224,0.54548 0.04959,1.09044 0.08165,1.63453 0.03206,0.5441 0.06918,1.08719 0.1111,1.62987 0.04192,0.5427 0.08908,1.08502 0.141083,1.62627 0.05199,0.54124 0.10878,1.08182 0.171042,1.6216 0.06227,0.53977 0.129836,1.07868 0.202574,1.61696 0.07274,0.53827 0.150672,1.07555 0.234094,1.6123 0.08342,0.53676 0.17235,1.07297 0.266654,1.60817 0.09429,0.5352 0.193817,1.06939 0.299202,1.60301 0.105386,0.53361 0.216648,1.06685 0.333312,1.59886 0.116673,0.53201 0.238744,1.06282 0.366905,1.59319 0.12816,0.53036 0.262197,1.05984 0.402042,1.58853 0.139855,0.52869 0.285954,1.05689 0.437701,1.58388 0.151748,0.52699 0.309513,1.05294 0.47335,1.5782 0.163849,0.52527 0.333396,1.04952 0.509533,1.57303 0.176146,0.52351 0.358613,1.04614 0.547255,1.56786 0.01698,0.0469 0.03563,0.0936 0.05271,0.14056 a 24.282467,26.2987 83.203001 0 0 4.808496,-0.15141 24.282467,26.2987 83.203001 0 0 4.876701,-1.02164 c -0.07065,-0.16583 -0.141776,-0.33181 -0.210838,-0.49764 -0.110667,-0.26573 -0.219463,-0.53164 -0.326072,-0.79737 -0.106619,-0.26573 -0.211073,-0.53112 -0.313683,-0.79685 -0.102601,-0.26573 -0.203149,-0.53164 -0.301792,-0.79737 -0.09864,-0.26573 -0.195171,-0.53113 -0.289896,-0.79685 -0.09474,-0.26573 -0.187679,-0.53164 -0.278537,-0.79736 -0.09087,-0.26574 -0.179614,-0.53165 -0.266655,-0.79738 -0.08704,-0.26572 -0.172532,-0.53112 -0.255796,-0.79684 -0.08326,-0.26573 -0.164376,-0.53165 -0.243914,-0.79737 -0.07954,-0.26573 -0.157196,-0.53164 -0.233059,-0.79737 -0.07586,-0.26573 -0.149983,-0.53112 -0.22221,-0.79685 -0.07223,-0.26572 -0.142714,-0.53164 -0.211355,-0.79736 -0.06864,-0.26574 -0.135402,-0.53165 -0.20051,-0.79738 -0.0651,-0.26572 -0.128552,-0.53112 -0.190165,-0.79684 -0.06161,-0.26574 -0.121676,-0.53165 -0.179834,-0.79737 -0.05816,-0.26573 -0.114222,-0.53113 -0.168986,-0.79685 -0.05477,-0.26573 -0.108262,-0.53165 -0.159673,-0.79737 -0.05141,-0.26573 -0.100729,-0.53164 -0.148836,-0.79737 -0.0481,-0.26572 -0.09467,-0.53113 -0.139519,-0.79685 -0.04485,-0.26573 -0.08807,-0.53164 -0.129712,-0.79737 -0.08327,-0.53145 -0.160286,-1.06276 -0.230992,-1.59421 -0.07071,-0.53146 -0.135273,-1.06329 -0.193792,-1.59474 -0.05851,-0.53146 -0.11091,-1.06276 -0.157607,-1.59422 -0.04671,-0.53146 -0.08773,-1.06276 -0.122993,-1.59422 -0.03526,-0.53145 -0.06469,-1.06327 -0.08888,-1.59473 -0.02419,-0.53146 -0.04334,-1.06277 -0.05684,-1.59421 -0.0135,-0.53146 -0.02162,-1.06277 -0.0248,-1.59422 -0.0032,-0.53146 -0.0011,-1.06276 0.0057,-1.59422 0.0068,-0.53145 0.0183,-1.06328 0.03462,-1.59474 0.01632,-0.53145 0.03701,-1.06277 0.06253,-1.59422 0.02551,-0.53146 0.05558,-1.06276 0.08991,-1.59422 0.03433,-0.53145 0.07298,-1.06328 0.115754,-1.59472 0.04278,-0.53146 0.08972,-1.06277 0.140559,-1.59423 0.05085,-0.53145 0.105793,-1.06277 0.164335,-1.59422 0.05853,-0.53145 0.120698,-1.06276 0.186553,-1.59421 0.06585,-0.531452 0.13545,-1.063286 0.208254,-1.594738 0.0728,-0.531452 0.149037,-1.062768 0.228406,-1.594217 0.07937,-0.531449 0.161968,-1.062769 0.247531,-1.59422 0.08556,-0.531452 0.173721,-1.06276 0.265104,-1.594221 0.06855,-0.398665 0.140233,-0.797643 0.211874,-1.196303 a 24.282467,26.2987 83.203001 0 0 -7.238317,-0.06873 24.282467,26.2987 83.203001 0 0 -1.995747,0.316263 z" />
    <path
       id="path10526"
       style="fill:none;stroke:#000000;stroke-width:1.5;stroke-linecap:round;stroke-linejoin:round;stroke-dasharray:none;stroke-opacity:1"
       d="m 47.109993,137.36247 c -0.74799,0.39812 -1.33838,0.84877 -1.73581,1.36374 z m 27.76988,0.99167 c 0.95401,0.66657 1.73548,1.47118 2.10736,2.60346 z m -23.05906,1.1157 c 0.16663,0.78514 0.30239,1.57027 0.12403,2.35541 z m 13.01729,1.48776 c -0.16591,1.05413 -0.4224,2.15355 -0.37207,3.09955 z"
       sodipodi:nodetypes="cccccccccccc" />
  </g>
</svg>
